<svg width="120" height="114" viewBox="0 0 120 114" fill="none" xmlns="http://www.w3.org/2000/svg">
<path d="M13.0185 35.3636H3.79261V79H13.0185V35.3636ZM35.1829 91.9545C44.5366 91.9545 51.1843 87.6932 51.1843 79.3196V46.2727H42.1715V51.7699H41.8306C40.6161 49.1065 37.9528 45.8466 32.4769 45.8466C25.2965 45.8466 19.2241 51.429 19.2241 62.5724C19.2241 73.4602 25.1261 78.5312 32.4982 78.5312C37.7184 78.5312 40.6374 75.9105 41.8306 73.2045H42.2141V79.1918C42.2141 83.6875 39.3377 85.4347 35.396 85.4347C31.3903 85.4347 29.3661 83.6875 28.6204 81.706L20.2255 82.8352C21.3121 87.9915 26.3619 91.9545 35.1829 91.9545ZM35.3746 71.7131C30.9215 71.7131 28.4925 68.1761 28.4925 62.5298C28.4925 56.9688 30.8789 53.0696 35.3746 53.0696C39.7852 53.0696 42.2567 56.7983 42.2567 62.5298C42.2567 68.304 39.7425 71.7131 35.3746 71.7131ZM73.1942 79.6392C83.1232 79.6392 89.3022 72.8423 89.3022 62.7642C89.3022 52.6222 83.1232 45.8466 73.1942 45.8466C63.2653 45.8466 57.0863 52.6222 57.0863 62.7642C57.0863 72.8423 63.2653 79.6392 73.1942 79.6392ZM73.2369 72.608C68.6559 72.608 66.3121 68.4105 66.3121 62.7003C66.3121 56.9901 68.6559 52.7713 73.2369 52.7713C77.7326 52.7713 80.0764 56.9901 80.0764 62.7003C80.0764 68.4105 77.7326 72.608 73.2369 72.608ZM95.2042 79H104.281V60.4844C104.281 56.4574 107.221 53.6875 111.227 53.6875C112.484 53.6875 114.21 53.9006 115.062 54.1776V46.1236C114.252 45.9318 113.123 45.804 112.207 45.804C108.542 45.804 105.538 47.9347 104.345 51.983H104.004V46.2727H95.2042V79Z" fill="#64FFDA"/>
<path d="M16.0185 35.3636H6.79261V79H16.0185V35.3636ZM38.1829 91.9545C47.5366 91.9545 54.1843 87.6932 54.1843 79.3196V46.2727H45.1715V51.7699H44.8306C43.6161 49.1065 40.9528 45.8466 35.4769 45.8466C28.2965 45.8466 22.2241 51.429 22.2241 62.5724C22.2241 73.4602 28.1261 78.5312 35.4982 78.5312C40.7184 78.5312 43.6374 75.9105 44.8306 73.2045H45.2141V79.1918C45.2141 83.6875 42.3377 85.4347 38.396 85.4347C34.3903 85.4347 32.3661 83.6875 31.6204 81.706L23.2255 82.8352C24.3121 87.9915 29.3619 91.9545 38.1829 91.9545ZM38.3746 71.7131C33.9215 71.7131 31.4925 68.1761 31.4925 62.5298C31.4925 56.9688 33.8789 53.0696 38.3746 53.0696C42.7852 53.0696 45.2567 56.7983 45.2567 62.5298C45.2567 68.304 42.7425 71.7131 38.3746 71.7131ZM76.1942 79.6392C86.1232 79.6392 92.3022 72.8423 92.3022 62.7642C92.3022 52.6222 86.1232 45.8466 76.1942 45.8466C66.2653 45.8466 60.0863 52.6222 60.0863 62.7642C60.0863 72.8423 66.2653 79.6392 76.1942 79.6392ZM76.2369 72.608C71.6559 72.608 69.3121 68.4105 69.3121 62.7003C69.3121 56.9901 71.6559 52.7713 76.2369 52.7713C80.7326 52.7713 83.0764 56.9901 83.0764 62.7003C83.0764 68.4105 80.7326 72.608 76.2369 72.608ZM98.2042 79H107.281V60.4844C107.281 56.4574 110.221 53.6875 114.227 53.6875C115.484 53.6875 117.21 53.9006 118.062 54.1776V46.1236C117.252 45.9318 116.123 45.804 115.207 45.804C111.542 45.804 108.538 47.9347 107.345 51.983H107.004V46.2727H98.2042V79Z" fill="#EF5DA8"/>
</svg>
